<?xml version="1.0" encoding="utf-8"?>
<!-- Generator: Adobe Illustrator 26.5.0, SVG Export Plug-In . SVG Version: 6.00 Build 0)  -->
<svg version="1.1" id="Ebene_1" xmlns="http://www.w3.org/2000/svg" xmlns:xlink="http://www.w3.org/1999/xlink" x="0px" y="0px"
	 viewBox="0 0 3000 3000" style="enable-background:new 0 0 3000 3000;" xml:space="preserve">
<style type="text/css">
	.st0{fill:#4115FF;}
</style>
<polygon class="st0" points="530.5,155.5 618,424.7 901,424.7 672,591 759.5,860.2 530.5,693.9 301.5,860.2 389,591 160,424.7 
	443,424.7 "/>
<polygon class="st0" points="1500,155.5 1587.5,424.7 1870.5,424.7 1641.5,591 1729,860.2 1500,693.9 1271,860.2 1358.5,591 
	1129.5,424.7 1412.5,424.7 "/>
<polygon class="st0" points="1001,777.1 1088.5,1046.3 1371.5,1046.3 1142.5,1212.7 1230,1481.8 1001,1315.5 772,1481.8 
	859.5,1212.7 630.5,1046.3 913.5,1046.3 "/>
<polygon class="st0" points="1970.5,777.1 2058,1046.3 2341,1046.3 2112,1212.7 2199.5,1481.8 1970.5,1315.5 1741.5,1481.8 
	1829,1212.7 1600,1046.3 1883,1046.3 "/>
<polygon class="st0" points="2469.5,155.5 2557,424.7 2840,424.7 2611,591 2698.5,860.2 2469.5,693.9 2240.5,860.2 2328,591 
	2099,424.7 2382,424.7 "/>
<polygon class="st0" points="530.5,1441.5 618,1710.7 901,1710.7 672,1877.1 759.5,2146.2 530.5,1979.9 301.5,2146.2 389,1877.1 
	160,1710.7 443,1710.7 "/>
<polygon class="st0" points="1500,1441.5 1587.5,1710.7 1870.5,1710.7 1641.5,1877.1 1729,2146.2 1500,1979.9 1271,2146.2 
	1358.5,1877.1 1129.5,1710.7 1412.5,1710.7 "/>
<polygon class="st0" points="1001,2063.1 1088.5,2332.3 1371.5,2332.3 1142.5,2498.7 1230,2767.9 1001,2601.5 772,2767.9 
	859.5,2498.7 630.5,2332.3 913.5,2332.3 "/>
<polygon class="st0" points="1970.5,2063.1 2058,2332.3 2341,2332.3 2112,2498.7 2199.5,2767.9 1970.5,2601.5 1741.5,2767.9 
	1829,2498.7 1600,2332.3 1883,2332.3 "/>
<polygon class="st0" points="2469.5,1441.5 2557,1710.7 2840,1710.7 2611,1877.1 2698.5,2146.2 2469.5,1979.9 2240.5,2146.2 
	2328,1877.1 2099,1710.7 2382,1710.7 "/>
</svg>
