<?xml version="1.0" encoding="utf-8"?>
<!-- Generator: Adobe Illustrator 27.0.1, SVG Export Plug-In . SVG Version: 6.00 Build 0)  -->
<!DOCTYPE svg PUBLIC "-//W3C//DTD SVG 1.1//EN" "http://www.w3.org/Graphics/SVG/1.1/DTD/svg11.dtd" [
	<!ENTITY ns_extend "http://ns.adobe.com/Extensibility/1.0/">
	<!ENTITY ns_ai "http://ns.adobe.com/AdobeIllustrator/10.0/">
	<!ENTITY ns_graphs "http://ns.adobe.com/Graphs/1.0/">
	<!ENTITY ns_vars "http://ns.adobe.com/Variables/1.0/">
	<!ENTITY ns_imrep "http://ns.adobe.com/ImageReplacement/1.0/">
	<!ENTITY ns_sfw "http://ns.adobe.com/SaveForWeb/1.0/">
	<!ENTITY ns_custom "http://ns.adobe.com/GenericCustomNamespace/1.0/">
	<!ENTITY ns_adobe_xpath "http://ns.adobe.com/XPath/1.0/">
]>
<svg version="1.1" id="Layer_1" xmlns:x="&ns_extend;" xmlns:i="&ns_ai;" xmlns:graph="&ns_graphs;"
	 xmlns="http://www.w3.org/2000/svg" xmlns:xlink="http://www.w3.org/1999/xlink" x="0px" y="0px"
	 viewBox="0 0 1118.6678467 768.2821655" style="enable-background:new 0 0 1118.6678467 768.2821655;" xml:space="preserve">
<metadata>
	<sfw  xmlns="&ns_sfw;">
		<slices></slices>
		<sliceSourceBounds  bottomLeftOrigin="true" height="768.7337632" width="1132.7661577" x="-36.415" y="35.9634023">
			</sliceSourceBounds>
	</sfw>
</metadata>
<path id="L2_x5F_LZ" style="fill:none;stroke:#000000;stroke-width:2.8299999;stroke-miterlimit:10;" d="M322.5383301,114.9723663
	h-130.5c0-3.8200073,0.5999756-7.7991943,2-11.7783508l13-35.7330322c14.5-40.1101074,86-40.1101074,100.5,0l13,35.7330322
	C321.9383545,107.173172,322.6383667,111.152359,322.5383301,114.9723663z"/>
<path id="R2_x5F_RZ" style="fill:none;stroke:#000000;stroke-width:2.8299999;stroke-miterlimit:10;" d="M930.2383423,114.9723663
	h-130.5c-0.0999756-3.8200073,0.5999756-7.7991943,2-11.7783508l13-35.7330322c14.5999756-40.1101074,86-40.1101074,100.5,0
	l13,35.7330322C929.6383667,107.173172,930.3383179,111.152359,930.2383423,114.9723663z"/>
<g id="remote">
	<path style="fill:none;stroke:#000000;stroke-width:2.8299999;stroke-miterlimit:10;" d="M1094.9361572,614.4695435
		c0,52.7000122-35.9000244,100.2000122-89,113.0999756c-55.3000488,13.5-112.3000488-15-134.7000732-67.2999878
		l-60.7698975-141.5999756h-0.0100098c-17.75,21.6699829-44.7200928,35.5-74.9200439,35.5
		c-37.6199951,0-70.2200317-21.460022-86.2400513-52.8000793H469.9761353
		c-16.0200195,31.3400574-48.6200562,52.8000793-86.2400513,52.8000793c-30.4299927,0-57.5699463-14.0400391-75.3099976-35.9900513
		l-60.9899902,142.0900269c-18.7000122,43.5999756-61.3999634,70.5999756-107.0999756,70.5999756
		c-9.1000366,0-18.4000244-1.0999756-27.6000366-3.2999878c-60.3999634-14.7000122-98.5999756-74.2000122-86.8999634-135.2000122
		L86.736084,294.4695129c8.1000366-39.2999725,18.1000366-63.1000214,31.1000366-85.7999725
		c13-22.7000122,29-44.2000122,49.2999878-78.8000488c5.4000244-9.1999512,15.2999878-14.8999634,26-14.8999634h139.4000244
		c3,0,6,0.5,8.7999878,1.3999634c2.8999634,0.9000244,5.5999756,2.2000122,8,4
		c4.7999878,3.5,10.7000122,5.4000244,16.7000122,5.4000244h386.5999756c3,0,6-0.5,8.8000488-1.4000244
		c2.8999023-0.8999634,5.5999756-2.1999512,8-4c4.7999268-3.5,10.6999512-5.3999634,16.6999512-5.3999634h139.4000244
		c5.2999268,0,10.5,1.3999634,15,4c4.4000244,2.5,8.2999268,6.2999878,11,10.8999634
		c40.5,69.1000366,64.0999756,86,80.4000244,164.4999847l60.8999023,297.9000549
		C1094.236084,599.6695557,1094.9361572,607.069519,1094.9361572,614.4695435z"/>
	<path style="fill:none;stroke:#000000;stroke-width:2.8299999;stroke-miterlimit:10;" d="M888.8383179,421.9723511
		c-68.5,0-124-55.5-124-123.8999939c0-68.4999847,55.5-123.9999847,124-123.9999847
		c68.4000244,0,123.9000244,55.5,123.9000244,123.9999847
		C1012.7383423,366.4723511,957.2383423,421.9723511,888.8383179,421.9723511z"/>
	<path style="fill:none;stroke:#000000;stroke-width:2.8299999;stroke-miterlimit:10;" d="M229.8383179,421.9723511
		c-68.5,0-124-55.5-124-123.8999939c0-68.4999847,55.5-123.9999847,124-123.9999847s124,55.5,124,123.9999847
		C353.7383423,366.4723511,298.2383423,421.9723511,229.8383179,421.9723511z"/>
	<path style="fill:none;stroke:#000000;stroke-width:2.8299999;stroke-miterlimit:10;" d="M308.4203491,518.1841431
		c-13.4355774-16.6196899-21.4819946-37.7760315-21.4819946-60.8117676c0-53.4611816,43.3388062-96.7999878,96.7999878-96.7999878
		s96.7999878,43.3388062,96.7999878,96.7999878c0,15.8442078-3.8066101,30.7993164-10.5552063,44.0006714"/>
	<path style="fill:none;stroke:#000000;stroke-width:2.8299999;stroke-miterlimit:10;" d="M649.2927246,501.3712463
		c-6.7480469-13.2009277-10.5543213-28.1553955-10.5543213-43.9988708c0-53.4611816,43.3388062-96.7999878,96.7999878-96.7999878
		s96.8000488,43.3388062,96.8000488,96.7999878c0,23.2617798-8.2051392,44.6071472-21.8790894,61.2997437"/>
</g>
<g id="TR">
	
		<circle style="fill:none;stroke:#000000;stroke-width:2.8299999;stroke-miterlimit:10;" cx="889.6383667" cy="218.5723724" r="35"/>
	<polygon style="fill:none;stroke:#000000;stroke-width:2.8299999;stroke-miterlimit:10;" points="889.7383423,195.8723907 
		868.5383911,232.7723846 911.0383911,232.7723846 	"/>
</g>
<g id="CI">
	
		<circle style="fill:none;stroke:#000000;stroke-width:2.8299999;stroke-miterlimit:10;" cx="969.6383667" cy="298.4723511" r="35"/>
	
		<circle style="fill:none;stroke:#000000;stroke-width:2.8299999;stroke-miterlimit:10;" cx="969.6383667" cy="298.4723511" r="20.5999756"/>
</g>
<g id="CR">
	
		<circle style="fill:none;stroke:#000000;stroke-width:2.8299999;stroke-miterlimit:10;" cx="889.6383667" cy="378.4723511" r="35"/>
	
		<line style="fill:none;stroke:#000000;stroke-width:2.8299999;stroke-miterlimit:10;" x1="875.5095215" y1="364.2435913" x2="903.8670654" y2="392.6011658"/>
	
		<line style="fill:none;stroke:#000000;stroke-width:2.8299999;stroke-miterlimit:10;" x1="903.8670654" y1="364.2435913" x2="875.5095215" y2="392.6011658"/>
</g>
<g id="SQ">
	
		<circle style="fill:none;stroke:#000000;stroke-width:2.8299999;stroke-miterlimit:10;" cx="809.7383423" cy="298.4723511" r="35"/>
	
		<rect x="794.4382935" y="283.1723633" style="fill:none;stroke:#000000;stroke-width:2.8299999;stroke-miterlimit:10;" width="30.5999756" height="30.5999756"/>
</g>
<path id="HAT_x5F_left" style="fill:none;stroke:#000000;stroke-width:2.8299999;stroke-miterlimit:10;" d="
	M210.7383423,307.2723389l-21,14.9000244c-1.7999878,1.2999878-4,2-6.2000122,2h-27.5
	c-5.8999939,0-10.7999878-4.7999878-10.7999878-10.7999878v-29.8999939c0-5.8999939,4.7999878-10.7999878,10.7999878-10.7999878
	h27.5c2.2000122,0,4.4000244,0.7000122,6.2000122,2l21,14.8999939
	C216.7383423,293.9723511,216.7383423,302.9723511,210.7383423,307.2723389L210.7383423,307.2723389z"/>
<path id="HAT_x5F_down" style="fill:none;stroke:#000000;stroke-width:2.8299999;stroke-miterlimit:10;" d="
	M237.7383423,316.6723633l14.9000244,21c1.2999878,1.7999878,2,4,2,6.2000122v27.5
	c0,5.9000244-4.7999878,10.7999878-10.7999878,10.7999878h-29.9000244c-5.9000244,0-10.7999878-4.7999878-10.7999878-10.7999878
	v-27.5c0-2.2000122,0.7000122-4.4000244,2-6.2000122l14.9000244-21
	C224.4383545,310.6723633,233.3383179,310.6723633,237.7383423,316.6723633L237.7383423,316.6723633z"/>
<path id="HAT_x5F_right" style="fill:none;stroke:#000000;stroke-width:2.8299999;stroke-miterlimit:10;" d="
	M247.1383667,289.6723633l21-14.8999939c1.7999878-1.2999878,4-2,6.2000122-2h27.5
	c5.9000244,0,10.7999878,4.7999878,10.7999878,10.7999878v29.8999939c0,5.9000244-4.7999878,10.7999878-10.7999878,10.7999878h-27.5
	c-2.2000122,0-4.4000244-0.7000122-6.2000122-2l-21-14.9000244
	C241.0383301,302.9723511,241.0383301,294.0723572,247.1383667,289.6723633L247.1383667,289.6723633z"/>
<path id="HAT_x5F_up" style="fill:none;stroke:#000000;stroke-width:2.8299999;stroke-miterlimit:10;" d="M220.1383667,280.2723694
	l-14.9000244-21c-1.2999878-1.7999878-2-3.9999847-2-6.1999969v-27.5c0-5.8999939,4.7999878-10.7999878,10.7999878-10.7999878
	h29.9000244c5.9000244,0,10.7999878,4.7999878,10.7999878,10.7999878v27.5c0,2.2000122-0.7000122,4.3999786-2,6.1999969
	l-14.9000244,21C233.4383545,286.2723694,224.4383545,286.2723694,220.1383667,280.2723694L220.1383667,280.2723694z"/>
<path id="L1" style="fill:none;stroke:#000000;stroke-width:2.8299999;stroke-miterlimit:10;" d="M322.5383301,114.9723663
	c-0.2000122,27.2000122-22.4000244,50.8999939-51.4000244,50.8999939h-27.7000122
	c-29,0-51.2000122-23.6000061-51.4000244-50.8999939H322.5383301L322.5383301,114.9723663z"/>
<circle id="R3" style="fill:none;stroke:#000000;stroke-width:2.8299999;stroke-miterlimit:10;" cx="735.5384521" cy="457.3723755" r="73.0999908"/>
<circle id="RX_x5F_RY" style="fill:none;stroke:#000000;stroke-width:2.8299999;stroke-miterlimit:10;" cx="735.5384521" cy="457.3723755" r="35.0999756"/>
<path id="R1" style="fill:none;stroke:#000000;stroke-width:2.8299999;stroke-miterlimit:10;" d="M930.2383423,114.9723663
	c-0.1999512,27.2000122-22.4000244,50.8999939-51.4000244,50.8999939h-27.6999512
	c-29,0-51.1999512-23.6000061-51.4000244-50.8999939H930.2383423L930.2383423,114.9723663z"/>
<circle id="L3" style="fill:none;stroke:#000000;stroke-width:2.8299999;stroke-miterlimit:10;" cx="383.7383423" cy="457.3723755" r="73.0999756"/>
<g id="PS_00000000197167733240511870000017189923011637559472_">
	
		<circle id="PS" style="fill:none;stroke:#000000;stroke-width:2.8299999;stroke-miterlimit:10;" cx="559.4383545" cy="448.3723755" r="35"/>
	<path style="fill:none;stroke:#000000;stroke-width:2.8299999;stroke-miterlimit:10;" d="M557.4616699,455.0862732
		l17.3575439-7.6239624c2.6982422-1.1859131,5.8469238,0.0401001,7.0328369,2.7383423l0,0
		c1.1859131,2.6982422-0.0401001,5.8469543-2.7383423,7.0328674l-12.8561401,5.6503601"/>
	<path style="fill:none;stroke:#000000;stroke-width:2.8299999;stroke-miterlimit:10;" d="M553.1671753,445.315033
		l-12.8562012,5.6503906c-2.6982422,1.1858826-3.9242554,4.3346252-2.7383423,7.0328674l0,0
		c1.1859131,2.6982422,4.3345947,3.9242554,7.0328369,2.7383423l12.8562012-5.6503601v-25.2862549l10.086792,2.7553101
		c2.8432007,0.7766724,4.5184937,3.7111206,3.7418213,6.5542908l0,0c-0.7766724,2.8432007-3.7111206,4.5184631-6.5542603,3.7418213"
		/>
</g>
<g id="GUIDE" style="display:none;">
	
		<circle id="PS_00000134972005329703156750000012538346882287615397_" style="display:inline;fill:none;stroke:#000000;stroke-width:2.8299999;stroke-miterlimit:10;" cx="0.0000003" cy="0.0000002" r="35"/>
	<path style="display:inline;fill:none;stroke:#000000;stroke-width:2.8299999;stroke-miterlimit:10;" d="M-1.9766893,6.7138772
		l17.3575325-7.6239653c2.6982431-1.1858971,5.8469629,0.0401031,7.0328608,2.7383482L22.4137077,1.82827
		c1.1858978,2.698245-0.040102,5.8469648-2.738348,7.0328617L6.8191886,14.511508"/>
	<path style="display:inline;fill:none;stroke:#000000;stroke-width:2.8299999;stroke-miterlimit:10;" d="M-6.2712073-3.057343
		l-12.8561726,5.6503763c-2.698246,1.1858974-3.9242458,4.3346167-2.738348,7.0328622l0.0000038,0.0000095
		c1.1858978,2.698245,4.3346176,3.9242458,7.0328617,2.738348l12.8561735-5.6503758v-25.2862434l10.0868187,2.7553196
		c2.8431845,0.7766466,4.518446,3.7110987,3.7417994,6.5542841l-0.0000029,0.0000105
		C11.0752802-6.4195681,8.1408272-4.744307,5.2976427-5.5209527"/>
</g>
<path id="TP" style="fill:none;stroke:#000000;stroke-width:2.8299999;stroke-miterlimit:10;" d="M383.2383423,125.7723846
	v9.2999878v169.0999908c0,13.2999878,10.7999878,24,24,24h304.1999512c13.3000488,0,24-10.7999878,24-24V125.7723846H383.2383423
	L383.2383423,125.7723846z"/>
<path id="OP" style="fill:none;stroke:#000000;stroke-width:2.8299999;stroke-miterlimit:10;" d="M762.6383667,200.6723785
	v-21.6000061c0-8.5,6.9000244-15.2999878,15.3000488-15.2999878c8.5,0,15.3000488,6.8999939,15.3000488,15.2999878v21.6000061
	c0,8.5-6.8000488,15.2999878-15.3000488,15.2999878C769.5383911,215.9723663,762.6383667,209.0723724,762.6383667,200.6723785z"/>
<path id="SH" style="fill:none;stroke:#000000;stroke-width:2.8299999;stroke-miterlimit:10;" d="M359.6383667,179.0723724
	v21.6000061c0,8.5-6.9000244,15.2999878-15.2999878,15.2999878s-15.2999878-6.8999939-15.2999878-15.2999878v-21.6000061
	c0-8.5,6.7999878-15.2999878,15.2999878-15.2999878S359.6383667,170.5723724,359.6383667,179.0723724L359.6383667,179.0723724z"/>
<circle id="LX_x5F_LY" style="fill:none;stroke:#000000;stroke-width:2.8299999;stroke-miterlimit:10;" cx="383.7383423" cy="457.3723755" r="35.0999756"/>
</svg>
