<?xml version="1.0" encoding="utf-8"?>
<!-- Generator: Adobe Illustrator 27.8.0, SVG Export Plug-In . SVG Version: 6.00 Build 0)  -->
<svg version="1.1" id="Ebene_1" xmlns="http://www.w3.org/2000/svg" xmlns:xlink="http://www.w3.org/1999/xlink" x="0px" y="0px"
	 viewBox="0 0 3000 3000" style="enable-background:new 0 0 3000 3000;" xml:space="preserve">
<path d="M1258.5,2927.6c-16,0-32.1-2.6-48-7.9c-72.2-24.4-114.6-99.1-98.6-173.6l303.3-1410.5l-658,768.3
	c-29.1,34-71.1,52.4-114,52.4c-19.5,0-39.2-3.8-58-11.7c-60.1-25.2-97-86.4-91.4-151.3l96.9-1113.5l-159.5,151.6
	c-48.7,46.3-122.1,54.6-179.9,20.3c-57.8-34.3-85.7-102.7-68.4-167.6l33.4-125.6c-47,12.4-99.1,1.7-138.2-33
	C16.4,670.4,10.9,575.6,66,513.7l331.1-371.6c46.2-51.9,122-65.2,183.1-32.3c61.2,32.9,91.7,103.5,73.8,170.6l-44.6,167.4l61.6-58.6
	c45.2-43,112.2-53.5,168.4-26.5c56.2,27,89.8,86,84.4,148.2l-90.7,1042.9l739.2-863.1c44.7-52.1,119-67.3,180.5-36.8
	c61.5,30.5,94.5,98.8,80.1,165.9l-158.4,736.5c35.1-39.1,89.1-58,142.6-46.7c68,14.3,117.3,73.5,119.1,143l4.3,172.3
	c26.1-21.5,59.1-34,94.1-34.3c0.5,0,1,0,1.4,0c35.1,0,68.3,12.2,94.6,33.6l148.9-495.1c21.2-70.4,90.2-115.1,163.1-105.5
	c72.9,9.5,128.1,70.5,130.4,144l31.6,997.3l136.3-99c67-48.7,160.8-33.8,209.5,33.2c48.7,67,33.8,160.8-33.2,209.5l-365.4,265.4
	c-44.9,32.6-104.2,37.8-154.1,13.3c-49.9-24.4-82.2-74.4-83.9-130l-12-377.1c-24.2,40.1-66.2,67.4-114.3,72
	c-4.8,0.5-9.6,0.7-14.3,0.7c-55.4,0-106.8-30.7-132.8-80.4l-1.4-2.7l-100,200.1c-25.8,51.6-78.3,82.9-134.1,82.9
	c-10.8,0-21.8-1.2-32.7-3.6c-67.2-15-115.6-73.8-117.3-142.7l-2.8-113.2l-258,548C1368.9,2895.3,1315.2,2927.6,1258.5,2927.6z"/>
</svg>
